# xmcd
#
# Track frame offsets: 
#        150
#        12850
#        22653
#        36455
#        56272
#        70029
#        83090
#        92350
#        103343
#        115390
#        125342
#        136565
#        146386
#        158093
#        165634
#        175906
#        188834
#        199456
#        212534
#        223062
#        235705
#        247475
#        258828
#        270238
#        279813
#        294847
#        305224
#
# Disc length: 4237 seconds
#
# Revision: 0
# Processed by: cddbd v1.5.2PL0 Copyright (c) Steve Scherf et al.
# Submitted via: ExactAudioCopyFreeDBPlugin 1.0
#
DISCID=74108b1b
DTITLE=Slim Harpo - Buzzin' The Blues: The Complete Slim Harpo [CD3
DTITLE=)
DYEAR=2015
DGENRE=Blues
TTITLE0=One Of These Days
TTITLE1=That Ain't Your Business
TTITLE2=I'm A King Bee (Alternative)
TTITLE3=This Ain't No Place For Me
TTITLE4=I Got Love If You Want It (Alternative)
TTITLE5=Things Gonna Change
TTITLE6=Wondering And Worryin' (Alternative 1)
TTITLE7=Strange Love (alt -1)
TTITLE8=Wondering And Worryin' (Alternative 2)
TTITLE9=One More Day (Alternative 1)
TTITLE10=Late Last Night (Alternative 1)
TTITLE11=Cigarettes
TTITLE12=One More Day (Alternative 2)
TTITLE13=Bobby Sox Baby (Alternative)
TTITLE14=Buzz Me Babe (Alternative)
TTITLE15=Late Last Night (Alternative 2)
TTITLE16=That Ain't Your Business
TTITLE17=Things Gonna Change
TTITLE18=Talking Blues (aka Blues Hangover)
TTITLE19=What's Goin'On
TTITLE20=You Ain't Never Had to Cry (aka Don't Start Cryin' Now)
TTITLE21=That's Alright (You'll Be Sorry One Day)
TTITLE22=That's Alright (Alternative)
TTITLE23=Yeah Yeah Baby
TTITLE24=Dream Girl (Alternative)
TTITLE25=Don't Start Cryin' Now (Alternative)
TTITLE26=Blues Hangover (Alternative)
EXTD=
EXTT0=
EXTT1=
EXTT2=
EXTT3=
EXTT4=
EXTT5=
EXTT6=
EXTT7=
EXTT8=
EXTT9=
EXTT10=
EXTT11=
EXTT12=
EXTT13=
EXTT14=
EXTT15=
EXTT16=
EXTT17=
EXTT18=
EXTT19=
EXTT20=
EXTT21=
EXTT22=
EXTT23=
EXTT24=
EXTT25=
EXTT26=
PLAYORDER=
